# xmcd CD database file
#
# Track frame offsets:
#	150
#	4234
#	25271
#	44723
#	61720
#	82840
#	94569
#	109781
#	130638
#	150503
#	173167
#	189627
#	210520
#
# Disc length: 2941 seconds
#
# Revision: 0
# Processed by: cddbd v1.5.2PL0 Copyright (c) Steve Scherf et al.
# Submitted via: CDex 1.70beta2
#
DISCID=990b7b0d
DTITLE=PSJ - Pini/Schopf/Jesdinsky - Every Thought of you
DYEAR=2014
DGENRE=Blues
TTITLE0=Interview Minister
TTITLE1=Catfish Blues
TTITLE2=I`m Going Down
TTITLE3=Jumping Blues
TTITLE4=Take Me Up
TTITLE5=Every Thought Of You
TTITLE6=Mescalin
TTITLE7=I`ve Been A Fool
TTITLE8=Standing In The Rain
TTITLE9=One Eyed Cat
TTITLE10=Don`t Talk To Me
TTITLE11=Love And Hate
TTITLE12=Ragtime
EXTD=YEAR: 2014
EXTT0=
EXTT1=
EXTT2=
EXTT3=
EXTT4=
EXTT5=
EXTT6=
EXTT7=
EXTT8=
EXTT9=
EXTT10=
EXTT11=
EXTT12=
PLAYORDER=
